<svg xmlns="http://www.w3.org/2000/svg" width="38" height="46" viewBox="0 0 298.6 414.5">
  <g class="logo" data-name="S" fill="#fff">
    <path d="M265.1 205c0-1.9-.5-3-2.2-3.9-17.8-10-35.5-20-53.3-30-.6-.3-1.2-.6-2.2-.3 1.7 2.1 3.4 4.2 5.1 6.4-.2.3-.2.2-.4.5-11.2-5.4-22.2-11.4-33.2-17.2-1.8-1-3.4-1.4-5.3 0-3.6 1.6-7 3.2-10.6 4.8-.6 0-1 .2-1.3.4 0-.2.3-.4.6-.7 3.3-2.1 6.4-4.2 9.7-6.2.5-.4.7-.7 1-1.1-1.4-.5-2.8-1.6-4.1-1.5-1.7 0-3.3 1-5.2 1.5-6.5 2.1-12.9 4.1-19.2 6.2-.2-.6 0-.3-.4-1 5.7-2.4 11.3-4.8 17.2-7.2.6-.4 1.1-.7 1.7-1.2-.9-.3-1.4-.7-2.1-.8-13.9-3.4-24.1-13.3-35.8-20.6-5.8-3.6-11.5-7.6-17.3-11.2-2.1-1.3-3.2-2.9-3.2-5.5 0-7.9-.3-16.1-.3-24.3-.5-4.1-1-8-1.6-12.1-1.1-1-2.2-1.8-3.4-2.7-2.3 0-4.5.2-6.7.2s-3.4-1-3.9 1.7c0 .3-.7.7-1.1.8-3.2.8-6.5 1.4-9.7 2.2-2.6.5-5.2 2.8-8 2.1-4.5-1.6-8.6-3.7-13.4-5-3.6 1.4-7 2.8-10.6 4.3-.7 0-1.2 0-1.9-.1-1.4-.1-2.9-.6-3.8-.1-2.8 1.4-4.8.7-6.9-1.3-.4-.4-.9-.7-1.7-1.2-.7 18 0 36.1 0 54.1 0 2.6.8 5.2 1.2 8 4 4.1 8.5 7.1 14 8.9 2.8 2.9 5.4 5.6 8.2 8.4.4 0 .7.2.9.4v.2c.4 0 .7.2 1.1.4v.2c3.6 1.4 7.1 2.9 10.8 4.6 2.3.8 4.5 1.5 6.8 2.3.9.4 1.7.7 2.5 1.2v.2c.4 0 .8 0 1.2.4v.2c2.9 1 5.8 2.1 8.8 3.4v.2c.5 0 1 .2 1.7.5.9.4 1.8.7 2.9 1.1.4.2.7.3 1.2.6v.2c4.5 1.1 5.6 4.8 7 8.5 1.5 2.1 3.4 3.2 5.9 3.7 1.5.3 2.9 1.5 4.2 2.4 3.2 2.2 6.2 4.9 9.6 6.6 20.8 10.3 41.8 20.2 62.5 30.8 8.2 4.2 6.4 1.8 6.6 11.2v18.9c0 7.4-2.9 11.7-10.1 13.6-6.2 1.7-12.7 2.7-19.1 3.2-12.8 1-25.6 1-38.2-2-8.5-2.1-14.9-6.5-14.7-16v-23.9c0-7.9-.7-3.4-3.2-3.4-23.9.3-48-.4-71.8.4v37.4c1.1.5 2.3.7 3.5 1 .7-3.3.6-6.1-3.2-8.2 1.8 0 2.7-.2 4.1-.2v-20.5h1.3c.2 5.9.6 11.8.6 17.7s.7 3.5 3 3.7c2.7.2 5.4.4 8 .6v.8c-3.6 1.1-7.3 2.2-11.3 3.3-.8 2.5.9 3.9 3.6 4.9h-3.5c0 1.5-.2 3-.2 3H45c-.6 1.7-1.1 3.1-1.7 4.8 1 .2 2.3.5 3.5 1.1.3.3.8.7 1.2.6 2.1-.7 1.9 0 1 1.7.9 2.4 5.3 7.5.4 8.1-.7 0-1.3.8-1.9 1.2.8.4 1.6 1.1 2.3 1 4-.6 6.8 1.7 10.1 3.6 1.4 0 2.6-.3 4-.6.4-1.6 0-2.7-1.8-3.2-.6-.2-1.1-1.2-1.6-2-.7-.7-1.5-1.1-2.1-1.5 1.8-1.3 3.6-2.7 5.5-4.2-.7-.9-1.4-1.7-1.7-2 2.2-1.2 4.4-2.4 6.7-3.7.3-.4.4-.6.6-1.1 0-2.5.4-5-.2-7.2-.8-3-.9-5.7 0-8.7.8-2.7-1-5.9.4-8.6 0 3.8 3.6 7.3 1 11.4-.4.6-.5 1.9 0 2.4 2.3 3 2.1 6.5 2.5 10.2v1.2c.8 1.5 1.4 2.8 2.3 3.9 2.3 2.8 2.3 2.7-.9 5.3 2.9.2 5.2.4 7.5.6v.6c-2.2.9-4.5 1.7-6.7 2.7-.9.5-1.6 1.5-2.4 2.3 2.1 1.8 4.2 3.7 6.3 5.5 1.2 1 2.3 2.4 3.8 3 3.1 1.2 6.3 1.9 9.4 3.2-3.1-.2-6.3-.4-9.6-.6h-1.8c-2.3.2-4.3.3-6.3.6-1.9.3-3 1.4-2.6 3.7v.3c.4.3.7.6 1.3 1.1.4.2.6.3.7.4 2.9.2 5.9.5 9 .7-.7 1.1-1.4 2.2-2.3 3.6 0 .8.4 1.5.7 1.5 5.8 0 11.7-.5 17.5-.4 0 .5 0 .4.2.9-6.1 2.9-12.6 4.8-18.8 7.5-1.2.5-1.9 2.2-2.8 3.4 1.1.6 2 1.5 3.2 1.9 2 .6 4.1.7 6 1.4 3.7 1.3 7.3 2.9 10.7 4.3-1.4.9-3.2 2.1-5.4 3.6 1.9.4 3 .6 4.7.9-1.8.7-2.8 1.2-4 1.6.4 3.7 2.2 6.3 5.4 8-.3.4-.5.7-.8 1l5.1 1.5c.4-2 .2-3.9 1.1-5.2 2.2-3.5 2.3-7.2 2.2-11-3.2-1.4 0-2.6 0-4.1-.2-.9-.3-1.7-.2-2.5.4-3.3.8-6.4 1.1-9.4.9 5.3 1.7 10.5 2.3 16 .3 4.7.8 9 1.3 13.1-.7.6-1.4 1.2-2.2 1.9 3.4 2.4 3.5 3.2.9 8.2 1.1-.2 2-.4 2.9-.6q0 .3.3.6c-.9.7-1.7 1.4-2.6 2 .8.5 1.6 1 2.4 1.4.6 0 1.1.2 1.9.5 1.1 1.4 2 2.8 3 4.3.6-7.1 1.1-14.1 1.7-21.1.9 4.6 1.7 9.2 2.1 13.8.2 2.1.8 3.6 2.8 4.3.2 0 .4 0 .9-.2-.4-1.2-1-2.1-1.6-3.2 1.5 0 3-.3 4.5-.5-.3-1.2-1.2-2.6-1.1-3.8.8-2.1 1.4-4.4 2.5-6.4.9-1.7 1-2.7-.7-2.8 1.1-3 2.1-6 3.1-8.8.3 3.4.4 6.7.8 10.1.2 2 .3 4.3 1.4 5.9 1.5 2.1 2 3.6 0 4.7 1 3.9 1.8 7.4 2.7 10.9h.9c.4-2.6.8-5.2 1.1-7.8h.3c.3 2.1.5 4.3.8 7.3.6-3.9 1.1-7 1.6-10 0-.2.7-.4 1.1-.6v.9c.5-.6 1-1.2 1.8-2 .9-4.4 1.5-8.4 2.2-13.1.6 5 1.2 9.4 1.8 13.9h.8c.2-2.2.5-4.3.7-6.5.2-1.4.4-2.7.6-4.5 1.2.7 2.1 1.2 3.1 1.8.2-.5.5-1 .7-1.6.7 1.8-.2 4.9 3.4 4.2v1.9c.4 2.8 1 5.2 1.7 8.4 1.8-2.5 3.5-4.2 4.3-6.3.4-1-.7-2.7-1.1-4h.8c0-.7.2-1.4.4-2.7 3.2-2 .6-6.5 2.4-10.2.7 5.8 1.4 11.1 2.1 16.9.8-2.2 1.4-3.8 2.1-5.5-.2 0-.7-.6-1.4-1.1 1.4-1 2.6-1.9 4.1-3-1.3-.3-1.9-.4-2.6-.6q0-.7-.2-1.3c1.3-.7 2.6-1.3 3.9-2v-.6c-1-.3-1.9-.6-2.9-.9 1.6-1.3 3-2.4 4.3-3.5q0-.4-.2-.8c-.8 0-1.6-.2-2.5-.2 3.7-3.2 4.3-5.3 2.6-6.4.4-2.5.8-4.8 1.3-7.5 2.4 3.9 0 9 3.8 12.3-.4.9-2 2.2.6 2.9.3 0 .7 1.4.5 1.7-2 2.4 0 2.8.9 2.8 1.7-1.1 3.3-2.2 5.5-3.6-2.2-.5-3.4-.8-4.9-1.2 1.6-1.1 2.8-2 4.1-2.9-1-.4-1.6-.7-2.4-1.1 1.3-1 2.3-1.7 4-3H184c1.2-1.4 2.4-2.9 3.7-4.3-.6-.4-1.1-.9-1.8-1.4 4-2.1 1.4-6.1 2.7-9 1.3 2-.7 5 2 6.2-.4.7-1.3 1.5-1.2 2 .6 1.7 1.5 3.4 2.3 5.2-.5.2-1.6.7-3 1.3 3.1 1 5.7 1.8 8.4 2.7v1c-2.7 1.2-5.4 2.3-7.6 3.3.4.6 1.1 1.7 1.9 3h4.4l.5.8-6.3 8.1.6.8c2.7-1 5.3-1.9 8.5-3.1-1.3-.8-2.1-1.3-2.9-1.8 2-1 3.9-2 5.6-2.8-.5-.9-1.2-1.5-1.1-2.1 0-3.2.6-6.8.9-10-2.4-1.1-.5-2.3-.2-3.5.4-1.6.7-4.6.2-4.8-3.7-1.6-.6-2.4.2-3.5l1.2-2.1h-.6c-.2-.8-.7-1.6-.6-2.4.3-3.1.7-6.2 1-9.5-.8-.6-1.6-.9-2.4-1.3v-.8c4-.4 7.9-.8 11.9-1.1 3.4-.4 6.7-.2 9.7-2-2.7-1.5-5.1-2.9-7.4-4.3.2-.5 0-.4.3-.8 3.1.6 6.1 1.4 9.2 1.8 1.3 0 3-.7 4.4-1.3.3-.8.6-1.6.9-2.6-2.4-.8-4.6-1.6-7.2-2.4 1.2-.9 2.3-1.6 3.2-2.3-2.8-1.2-5.6-2.4-9-3.9 4.9-1.7 8.7-3.1 12.6-4.5v-.7c-3.5-1.5-6.9-3-10.1-4.4 2.1-1.4 4.3-3 6.7-4.6-1.1-.9-1.8-1.4-2.7-2.2.9-.2 1.6-.5 2.2-.6 5.2-1.2 7.6-5.3 5.8-10.3-1.3-3.6-1.6-6.9 0-10.6.8-2.4-1.5-5.4.2-8-.2 3.8 3.6 7.3.8 11.3-.4.6-.6 2-.2 2.4 2.2 2.2 2.1 5 2.3 7.7.3 4 .6 8 4.6 10.2-.9 1.2-1.5 2.1-2.7 3.8 3.3-.2 5.9-.3 9.4-.5-2.1 1.2-3.4 2.1-4.9 2.7-1.1.5-2.5.7-3.6 1.3s-2 1.4-3 2.1c2 1.9 4.4 3.5 6.4 5.4 1.5 1.6 1.5 5.2 5.6 2.7 1.9-1.1 5 0 7.6 0 1.2 0 2.3.3 3.8.5h4.3c-1.8-1-3.6-2-5.4-2.9-.3-.7-.7-1.6-1.1-2.6-.3-.6-.6-1-.8-1.4 2.3-.8 4.5-1.6 7.4-2.7-1.2-.7-1.9-1.1-2.8-1.5h-.2c-.3.2-.6.3-.9.3h-.5c-.8.3-1.5.6-2.5 1-1.3-.6-2.3-1.1-3.5-1.7-.6.4-.9.9-1.3 1.4-.3 0-.5-.2-.8-.3.5-1.1 1.1-2.2 1.8-3.4 0-.3.2-.5.5-.6v-.4c-.3-.5-.6-.8-1.2-1.4h5.3c-.7-1.8-1.4-3.3-2.1-5h5.1c-.6-1.1-1.1-1.9-1.5-2.8-.3 0-.5 0-.7-.2v-.6h.2c.4-1.1 1-2.5 1.3-3.2-3.6-1.6-6.6-3-9.7-4.5-.4-.3-.6-.5-.9-.7h10.4v-14.4c0-.9 0-1.4.2-2h.6c.6 5.3.7 10.7 1.1 16 .7.2 1.5.5 2.7.9-1.4 1.6-1.7 3.4-2.1 5.4 0 .2 1.1.5 2 .8.6.4 1 .7 1.1 1.1-1.1.3-2 .5-3.1.8.2 2.1.4 4.3.6 6.6 1.2 0 2.4.2 3.7.3.4-4.4.3-9.3.4-13.9v-1.8c-.6-16.9-.7-33.1-.7-49.3Z"/>
    <path d="M102.1 68.9c-7.1.5-14.1.8-21.6 1.1-4.9-.7-7.8 1.9-10.9 4.3-.4 0-.8 0-1.2-.2-6.7-2.7-12.2.9-18.3 3.1-6.1.3-11.5-1.1-16.4-4.2-.8-.5-1.7-1.5-1.7-2.3V22.8h234.6v74.5c0 3.5-1.2 5.6-4.5 6.8-7.4 2.9-15.6 4.9-21.1 10.9-4.5 4.7-9.9 6.4-16 4.8-6.3-1.6-12.2-1.9-18.2.9-1.6.7-3.5.7-5.6.9-1.3-.1-2.2-.1-3-.1-3.2.3-2.7-1-2.2-4.4.6-5.9.8-6 1.5-18.1 3.9.3 7.9.9 12.2 1.7 4.1.9 7.7 1.6 11.4 2.4 0-.2 0-.3.2-.5-2.6-1-5.3-2-7.9-3l-.2-.2c-.9-.4-1.7-.6-2.5-.9l-.3-.2c-4.1-1.6-8.1-3.1-12.1-4.8 0-4 .4-7.8.4-11.6 0-3.1-1.5-4.1-4.5-3.3-5 1.3-9.8 1-14.6-1-2.6-1-5.2-2-7.6-3.3-6.9-3.8-14.1-6.7-22.1-6.8-9-.8-18-1.5-26.9-2.4-7.5-.8-14 1.9-20.9 3.8Z"/>
  </g>
  <g class="frame" data-name="Frame" fill="#fff">
    <path d="M20.9 315.3v5.6c-6.7-4.4-12.6-8.9-19-13.6-.7-.5-1.3-1.5-1.4-2.3-.2-2.3 0-4.7 0-7.6 6.5 4.3 11.9 8.7 18.1 13 1.9 1.2 2.8 2.6 2.4 4.9ZM.3 127.5v-63c6 1.1 7.7 4.5 7.5 10.9-.6 18.6-.2 37.2-.5 56-.5.2-.7 0-.9 0-.3-.2-.5-.3-.7-.3-.4-.4-.7-.5-1.1-.7-.4-.3-.7-.5-1-.6-.2-.2-.5-.3-.7-.4-.4-.3-.7-.5-1.1-.6-.3-.3-.7-.5-1.1-.8H.3ZM215 6.5c-1.9.6-3.7 1.4-5.4 1.5-67.2.1-134.4 0-201.7 0v53.5c-2.1-.9-3.7-1.6-5.7-2.5-.9-.8-1.7-1.5-1.7-2.1C.3 54 .3 51 .3 47.8V35.2c0-11.6 0-23.5.1-35C4.8 0 10.6 0 14.7 0 84 .4 153.2 0 222.5.1c-2.7 2.4-5.1 4.3-7.5 6.4ZM147.6 404.8c1.2 1.2 2 1.1 3.2.2 41.4-30.7 82.6-61 124-91.7-1.8 4.6-3.4 8.7-5.2 12.8-.3.7-1.2 1.3-1.9 1.8-36.1 26.7-72.3 53.4-108.4 80.1-2.7 2-5.3 4.2-8.2 6-.7.5-2.3.7-2.9.2-4.1-2.8-8-5.8-12-8.8-.4-.3-.9-.8-1.1-1.4-1-3.3-1.9-6.6-3.2-10.9 5.7 4.3 10.6 7.9 15.7 11.7ZM290.9 170.7v-14.8c2.4.6 4.8 1.3 7.4 2 .5 47.8.2 95.6.3 143.4 0 2.5-.5 4.2-2.7 5.6-4.5 2.9-8.6 6.3-13 9.6v-8.6c0-.8.9-1.7 1.6-2.2 4.5-3.3 6.7-7.7 7.4-13.2V170.7h-1.1ZM297.4 97.8c-2.2 1-4.2 1.8-6.5 2.7V8.4h-59.8c4.5-2.5 9.2-5 13.9-7.4.7-.3 1.5-.5 2.3-.5h50.8c.4 31.2 0 62.5 0 93.7 0 1.2-.4 2.3-.8 3.6ZM7.9 134.9c-.7 36.4 0 140.5-.2 145.7-1-.5-1.6-.8-2.7-1.2-1.8-1-3.1-2-4.5-3l-.2-.3C.1 227.4-.3 178.6.3 130c2.8 1.7 5.1 3.3 7.5 4.9ZM81.9 366.5c-11.7-8.7-23.2-17.4-34.9-25.8-1.8-1.3-2.5-2.6-2.3-4.6.2-1.8 0-3.6 0-5.8 22.7 15.9 44.7 32.9 67.2 49.1 1.5 1.1 2.3 2 1.7 4-.5 1.7-.3 3.7-.5 6-10.5-7.7-20.8-15.2-31.2-22.9Z"/>
  </g>
</svg>
