<?xml version="1.0" encoding="UTF-8"?>
<svg id="Layer_1" data-name="Layer 1"
  xmlns="http://www.w3.org/2000/svg" viewBox="0 0 2078 1165" width="256px" height="256px">
  <defs>
    <style>
      .cls-1 {
        fill: #000;
        stroke-width: 0px;
      }
    </style>
  </defs>
  <g id="s_copy" data-name="s copy">
    <g>
      <path class="cls-1" d="m1046.9,750.33c-.37.19-1.02.32-1.06.57-.55,3.02-1.01,6.05-1.64,9.98-.34-2.99-.59-5.13-.84-7.26-.09.02-.19.03-.28.05-.38,2.62-.77,5.25-1.15,7.87-.3-.01-.59-.03-.89-.04-.85-3.49-1.7-6.98-2.65-10.85,1.87-1.14,1.35-2.6-.1-4.72-1.06-1.56-1.13-3.89-1.36-5.9-.38-3.36-.53-6.74-.78-10.1-1,2.89-2.01,5.81-3.06,8.84,1.73.16,1.59,1.17.71,2.85-1.05,2-1.7,4.22-2.47,6.36-.11.31.06.74.17,1.09.29.9.61,1.79.93,2.68-1.19.14-2.39.28-3.58.42-.28.03-.57.05-.93.09.65,1.03,1.25,1.99,1.61,3.15-.45.2-.66.21-.87.21-2-.77-2.58-2.23-2.77-4.35-.4-4.6-1.21-9.17-2.08-13.77-.55,7.01-1.1,14.01-1.66,21.09-.99-1.5-1.88-2.84-3-4.29-.79-.23-1.35-.35-1.91-.46-.81-.48-1.63-.97-2.43-1.44.84-.67,1.69-1.36,2.55-2.05-.09-.19-.17-.38-.26-.56-.9.18-1.81.36-2.88.58,2.63-5.02,2.57-5.76-.87-8.2.78-.69,1.49-1.33,2.17-1.94-.48-4.14-.99-8.43-1.25-13.11-.6-5.57-1.44-10.76-2.3-16.05q7.39,0,7.86-2.95c-1.44.4-2.72.91-4.05,1.09-1.36.18-2.77.04-3.63.04-.35,3.59-.71,7.35-1.24,11.27-.05.86.06,1.57.22,2.51-.12,1.5-3.27,2.7-.07,4.07.13,3.84-.01,7.56-2.18,11.03-.81,1.3-.68,3.19-1.05,5.24-1.65-.48-3.35-.97-5.06-1.46.26-.34.51-.68.79-1.05-3.12-1.72-4.99-4.3-5.35-7.99,1.15-.48,2.22-.92,3.98-1.64-1.76-.34-2.86-.55-4.72-.92,2.23-1.48,4.01-2.66,5.4-3.58-3.39-1.4-6.97-3.02-10.66-4.35-1.93-.7-4.07-.78-6.04-1.39-1.14-.36-2.12-1.22-3.17-1.86.91-1.16,1.58-2.87,2.77-3.38,5.21-2.25,10.57-4.15,15.86-6.2.99-.38,1.93-.9,2.9-1.35-.02-.28-.04-.56-.06-.85-1.77,0-3.54-.05-5.31,0-4.11.13-8.21.34-12.32.42-.28,0-.58-.76-.65-1.52.9-1.41,1.58-2.46,2.3-3.58-3.19-.26-6.11-.5-9.04-.74-.13-.12-.27-.21-.68-.44-.6-.47-.96-.77-1.32-1.07,0,0-.04-.07-.13-.31-.37-2.3.65-3.4,2.59-3.67,2.03-.28,4.07-.44,6.33-.61.67.01,1.12-.02,1.83,0,3.38.24,6.51.44,9.63.63-3.09-1.3-6.32-2.01-9.39-3.18-1.42-.54-2.53-1.93-3.75-2.98-1.28-1.1-2.53-2.25-3.79-3.37-.82-.73-1.66-1.45-2.49-2.17.79-.78,1.46-1.82,2.4-2.28,2.16-1.06,4.46-1.84,6.7-2.73-.03-.19-.07-.38-.1-.57-2.32-.17-4.64-.35-7.49-.56,3.22-2.59,3.17-2.55.88-5.3-.93-1.12-1.58-2.49-2.33-3.94-.03-.46-.08-.72-.1-1.24-.31-3.69-.15-7.21-2.45-10.19-.39-.51-.3-1.83.09-2.44,2.67-4.1-.94-7.55-.95-11.39-.52,1.07-.55,2.14-.51,3.2.07,1.82.69,3.82.16,5.44-.98,2.98-.9,5.68-.09,8.68.59,2.19.26,4.63.24,7.15-.21.44-.33.69-.58,1.07-2.33,1.32-4.53,2.53-6.7,3.71.31.38.93,1.13,1.67,2.04-1.88,1.43-3.71,2.82-5.48,4.17.63.39,1.36.84,2.08,1.52.52.85.94,1.85,1.58,2.02,1.75.46,2.11,1.56,1.75,3.16-1.45.3-2.68.53-4.03.57-3.22-1.9-6.1-4.19-10.05-3.6-.71.11-1.56-.67-2.34-1.04.64-.42,1.25-1.17,1.92-1.21,2.19-.15,2.56-1.62,2.06-3.11-.57-1.72-1.72-3.26-2.48-5.03.94-1.53,1.11-2.37-.98-1.66-.34.12-.86-.28-1.17-.62-1.21-.51-2.54-.83-3.5-1.06.61-1.72,1.13-3.15,1.73-4.83h-7.45c.06-1.16.12-2.23.19-3.49h3.45c-2.67-1.14-4.42-2.57-3.59-5.08,3.98-1.18,7.61-2.26,11.25-3.33-.08-.25-.17-.51-.25-.77-2.62-.2-5.24-.39-7.86-.61-2.28-.19-2.99-1.34-2.99-3.7,0-5.9-.39-11.79-.62-17.69-.29,0-.58.01-.87.02v20.35c-1.4.08-2.35.14-4.15.24,3.89,2.09,4,4.94,3.27,8.29-1.28-.26-2.43-.49-3.58-1-.01-12.79-.01-25.31-.01-37.78.27-.11.44-.24.61-.24,24-.04,48.01-.05,72.01-.13,2.52,0,3.24,1.1,3.23,3.45-.04,8.07.11,16.13.09,24.2-.02,7.1,3.22,11.91,9.82,14.46,1.66.64,3.34,1.3,5.07,1.71,12.74,3.06,25.68,3.07,38.6,2.03,6.5-.52,13.04-1.56,19.33-3.25,7.33-1.97,10.12-6.26,10.26-13.79.12-6.37.23-12.75.15-19.12-.12-9.43,1.63-7.09-6.63-11.29-20.94-10.65-42.2-20.65-63.23-31.1-3.49-1.73-6.46-4.49-9.72-6.71-1.36-.93-2.76-2.12-4.29-2.43-2.5-.5-4.39-1.63-5.93-3.73-1.42-3.7-2.56-7.47-7.06-8.46-.05-.05-.17-.12-.15-.11.01.02.05,0,.02-.2-.42-.29-.8-.39-1.18-.46,0,.03.05.02-.09-.14-1.06-.46-1.98-.77-2.9-1.06,0,.02.04.02-.1-.13-.66-.26-1.17-.37-1.69-.46,0,.02.04,0-.05-.2-3.02-1.28-5.96-2.36-8.89-3.42,0,.03.04,0,.02-.21-.42-.27-.83-.33-1.23-.37,0,.02.04,0,0-.2-.83-.5-1.61-.8-2.52-1.25-2.32-.81-4.51-1.45-6.86-2.28-3.74-1.66-7.33-3.15-10.93-4.61-.02.02.02-.02-.05-.2-.42-.28-.77-.37-1.13-.44-.01.03.04,0,.05-.2-.24-.24-.49-.28-.92-.41-2.86-2.85-5.53-5.62-8.33-8.54-5.52-1.83-10.11-4.83-14.15-9-.45-2.86-1.21-5.49-1.22-8.12-.12-17.81-.09-35.62-.1-53.42,0-.33.12-.65.25-1.27.76.53,1.28.8,1.69,1.19,2.04,1.97,4.15,2.73,6.94,1.28.97-.51,2.46-.02,3.87.13.67.1,1.18.09,1.92.11,3.65-1.44,7.08-2.93,10.72-4.3,1.25.4,2.32.59,3.32.97,3.4,1.32,6.76,2.76,10.18,4.04.71.26,1.68.18,2.43-.06,1.91-.61,3.72-1.58,5.65-2.09,3.25-.86,6.57-1.46,9.85-2.23.44-.1,1.09-.49,1.15-.82.44-2.68,2.29-1.73,3.9-1.71,2.2.03,4.39-.18,6.76-.18,1.25.9,2.33,1.7,3.47,2.7.6,4.12,1.14,8.05,1.62,12.23-.02,1.12.03,1.98.04,3.12.09,7.34.29,14.41.31,21.47.01,2.58,1.05,4.19,3.22,5.54,5.89,3.68,11.59,7.67,17.49,11.34,11.81,7.36,22.14,17.31,36.18,20.79.62.15,1.2.47,2.08.81-.65.5-1.08.82-1.72,1.18-5.98,2.48-11.75,4.92-17.51,7.36.12.32.23.64.35.96,6.43-2.08,12.87-4.16,19.53-6.28,1.89-.58,3.54-1.51,5.22-1.55,1.38-.03,2.79.99,4.18,1.54-.26.36-.53.71-.99,1.1-3.34,2.09-6.48,4.14-9.77,6.3-.29.3-.43.49-.57.69.37-.12.74-.24,1.34-.37,3.64-1.63,7.05-3.25,10.68-4.88,1.95-1.34,3.52-.91,5.35.07,8.46,4.57,16.98,9.02,25.5,13.46,2.66,1.39,5.38,2.64,8.07,3.96.13-.17.26-.34.38-.51-1.71-2.15-3.41-4.3-5.12-6.44,1.08-.22,1.69.02,2.25.34,17.96,10.13,35.9,20.29,53.89,30.37,1.71.96,2.25,2.05,2.24,3.97-.04,16.41.03,32.82,0,49.45-.04.68-.01,1.14-.04,1.86-.03,1.67-.02,3.09-.05,4.77-.06,3.27-.07,6.26-.33,9.27-1.4-.09-2.55-.2-3.78-.31-.22-2.34-.42-4.55-.61-6.66,1.13-.28,2.05-.51,3.16-.8-.17-.39-.54-.72-1.16-1.09-.87-.31-2.02-.68-1.99-.85.22-1.31.61-2.6,1.07-3.85.2-.55.66-1,1.09-1.61-1.14-.37-1.96-.63-2.68-.87-.31-4.73-.6-9.28-.86-14.06-.05-.84-.15-1.45-.24-2.07-.19,0-.38,0-.57,0-.05.58-.1,1.15-.18,2.01-.04,4.81-.04,9.34-.04,14.51-3.35,0-6.45,0-9.65-.15-.37-.13-.64-.12-.92-.1.27.16.54.32.9.67,3.13,1.55,6.17,2.91,9.8,4.54-.29.71-.88,2.14-1.28,3.12.67,1.21,1.25,2.28,2.04,3.71h-8.08c.73,1.73,1.38,3.24,2.13,5.03h-5.19c.52.57.84.92,1.16,1.39,0,.12,0,.36-.11.44-.31.18-.38.33-.5.65-.72,1.21-1.26,2.31-1.8,3.4.26.12.52.23.78.35.38-.49.76-.97,1.33-1.37,1.23.61,2.27,1.13,3.54,1.7.97-.34,1.71-.71,2.53-.98.3.19.45.11.51.1.32.06.64-.1.94-.27-.03,0-.03.05.22.04.91.39,1.56.78,2.81,1.53-2.9,1.04-5.08,1.82-7.43,2.67.14.46.44.85.79,1.43.41,1.08.79,1.96,1.07,2.65,1.8.99,3.61,1.98,5.44,2.98.03,0,0-.04-.25.02-1.46.09-2.67.12-4.13.09-1.43-.21-2.61-.44-3.79-.49-2.58-.11-5.74-1.1-7.61.02-4.07,2.45-4.07-1.14-5.59-2.74-1.02-1.07-2.3-1.89-3.45-2.85-1-.84-1.98-1.7-2.97-2.56,1-.73,1.94-1.59,3.03-2.15,1.13-.58,2.45-.78,3.6-1.33,1.44-.69,2.8-1.56,4.89-2.76-3.54.19-6.14.32-9.51.5,1.15-1.62,1.79-2.53,2.67-3.78-4.04-2.22-4.38-6.24-4.68-10.26-.21-2.76-.1-5.57-2.36-7.77-.37-.36-.18-1.81.24-2.42,2.84-4.06-.98-7.54-.78-11.37-.66,1.07-.72,2.13-.64,3.18.12,1.64.97,3.55.4,4.86-1.58,3.67-1.28,7.02.04,10.65,1.83,5.03-.6,9.12-5.8,10.37-.68.16-1.36.39-2.25.64.94.77,1.62,1.32,2.74,2.23-2.45,1.68-4.7,3.23-6.78,4.67,3.06,1.34,6.44,2.82,9.81,4.3.1.28.2.55.3.83-3.92,1.4-7.84,2.81-12.73,4.56,3.46,1.51,6.24,2.72,9.09,3.95-.98.69-2.04,1.44-3.26,2.3,2.57.88,4.79,1.64,7.22,2.46-.35.96-.64,1.77-.93,2.59,0,0,.06.03-.16.1-1.59.48-3,1.33-4.3,1.19-3.09-.34-6.13-1.15-9.19-1.77-.15.27-.31.54-.46.82,2.39,1.38,4.78,2.75,7.49,4.31-1.1.48-2,1.1-2.99,1.26-2.25.37-4.53.53-6.8.75-4.04.39-8.08.77-12.12,1.16,0,.27.01.54.02.8.78.33,1.57.66,2.4,1.26-.33,3.37-.78,6.47-1.05,9.58-.07.78.42,1.61.65,2.42.24,0,.48,0,.71,0-.38.68-.76,1.36-1.14,2.04-.74,1.05-3.76,1.86-.17,3.41.54.23.2,3.15-.18,4.72-.3,1.26-2.14,2.39.23,3.47.12.06-.12.86-.16,1.32-.26,2.81-.58,5.62-.71,8.44-.03.58.62,1.2,1.11,2.09-1.69.86-3.48,1.77-5.48,2.79.8.49,1.51.92,2.83,1.73-3.12,1.13-5.73,2.08-8.34,3.03-.17-.28-.34-.56-.51-.84,2.02-2.62,4.04-5.25,6.06-7.87l-.51-.8h-4.52c-.83-1.33-1.56-2.49-1.93-3.08,2.4-1.05,5.22-2.27,8.03-3.5-.07-.3-.15-.6-.22-.9-2.73-.87-5.46-1.74-8.62-2.74,1.43-.61,2.5-1.07,3.05-1.31-.86-1.83-1.81-3.5-2.38-5.29-.17-.53.77-1.4,1.2-2.1-2.77-1.28-.77-4.35-2.08-6.4-1.29,3.02,1.36,7.12-2.72,9.23.67.51,1.24.95,1.81,1.39-1.27,1.5-2.54,2.99-3.78,4.45h4.35c-1.7,1.28-2.74,2.07-4,3.02.85.38,1.46.65,2.41,1.08-1.36.96-2.57,1.81-4.13,2.92,1.55.38,2.73.68,4.93,1.22-2.16,1.42-3.82,2.5-5.47,3.59-.86.07-2.89-.34-.92-2.77.23-.28-.17-1.62-.48-1.71-2.58-.7-.99-1.99-.6-2.91-3.87-3.25-1.41-8.35-3.79-12.28-.45,2.63-.85,4.93-1.28,7.45,1.71,1.11,1.05,3.23-2.61,6.4.84.08,1.6.15,2.36.23.17.24.35.48.52.72-1.42,1.14-2.84,2.28-4.45,3.58.88.28,1.64.51,2.41.75.2.25.4.49.59.74-1.46.74-2.92,1.48-4.38,2.22.29.4.58.8.87,1.2.59.14,1.19.28,2.28.53-1.46,1.08-2.66,1.96-4.09,3.01.7.54,1.23.95,1.44,1.1-.65,1.74-1.22,3.3-2.06,5.54-.7-5.77-1.34-11.04-2.05-16.86-1.82,3.67.78,8.2-2.44,10.22-.17,1.32-.27,2.07-.37,2.82l-.76-.08c.43,1.35,1.55,2.99,1.14,4-.84,2.06-2.51,3.78-4.33,6.31-.72-3.21-1.27-5.65-1.72-8.44.1-.87.1-1.4.09-1.94-3.63.69-2.7-2.38-3.42-4.22-.26.58-.49,1.09-.73,1.61-1.01-.59-1.96-1.15-3.12-1.83-.25,1.78-.44,3.15-.63,4.52-.24,2.18-.47,4.35-.71,6.53-.28,0-.56-.01-.84-.02-.56-4.42-1.12-8.84-1.76-13.87-.72,4.67-1.35,8.73-2.25,13.08-.77.88-1.27,1.46-1.77,2.05m9.8-40.95c.61.89,1.03,2.21,1.87,2.6,2.49,1.16,5.11,2.12,7.78,2.8,1.1.28,2.44-.37,3.22-.52-1.3-.84-2.49-1.58-3.65-2.35-2.69-1.77-5.14-4.26-9.21-2.53m38.63-28.39c-2.25,2.57-4.5,5.15-6.78,7.77,4.85-1.8,9.51-3.86,11.88-9.37-1.55.49-3.1.99-5.09,1.61m-70.08,11.9c-.82-.23-1.63-.45-2.98-.83,3.82,5.46,7.45,1.39,10.93.76,1.23-.22,2.31-1.3,3.46-1.98-3.6-1.68-5.94-.15-8.3,1.63-.67.51-1.78.43-3.11.43m-22.31-157.66c3.02,2.29,5.3,6.59,10.22,3.73-3.25-1.57-6.5-3.15-9.78-4.68-.12-.06-.48.41-.44.95m146.53,130.82c-.28,3.51.32,4.76,2.61,5.12-.35-.9-.67-1.73-1.02-2.64,1.14-.09,2.06-.17,3.52-.29-1.87-.92-3.25-1.6-5.11-2.19m14.41-12.61c.09-.43.19-.86.28-1.29l-2.41.3c-.02.2-.04.41-.05.61.56.12,1.11.25,2.18.38Z"/>
      <path class="cls-1" d="m1119.97,396.7c-1.87.62-3.65,1.44-5.43,1.45-65.82.06-131.64.04-197.45.04-1.29,0-2.58,0-4.24,0v53.47c-2.06-.89-3.67-1.59-5.72-2.46-.88-.83-1.68-1.46-1.72-2.13-.19-2.92-.16-5.85-.16-9.06.02-4.28,0-8.28,0-12.56.02-4.07-.01-7.87,0-11.94.02-3.68-.02-7.09,0-10.77.06-4.29.08-8.3.09-12.32,1.23-.04,2.47-.07,4.23-.11,3.73-.04,6.93-.07,10.12-.1,1.89.04,3.77.13,5.66.13,66.29,0,132.58,0,198.87,0,.88,0,1.77,0,3.26,0-2.78,2.32-5.11,4.26-7.52,6.38Z"/>
      <path class="cls-1" d="m1052.72,795.01c1.16,1.19,1.99,1.1,3.18.22,38.42-28.44,76.87-56.83,115.32-85.23,2.76-2.04,5.5-4.09,8.68-6.46-1.85,4.6-3.45,8.73-5.2,12.79-.32.74-1.21,1.27-1.92,1.79-36.13,26.7-72.27,53.39-108.41,80.08-2.72,2.01-5.34,4.15-8.15,6.03-.73.49-2.29.65-2.94.2-4.09-2.82-8.04-5.84-12.01-8.83-.45-.34-.93-.84-1.09-1.36-1.01-3.3-1.94-6.62-3.17-10.86,5.66,4.2,10.58,7.85,15.7,11.64Z"/>
      <path class="cls-1" d="m1196.36,560.92c0-4.92,0-9.85,0-14.77,2.05.6,4.42,1.29,7.01,2,.26,23.33.29,46.64.3,69.94,0,24.5-.04,49,.03,73.5,0,2.46-.46,4.15-2.72,5.64-4.46,2.93-8.63,6.31-12.99,9.56,0-2.98-.12-5.79.07-8.57.05-.78.87-1.69,1.58-2.22q6.7-4.93,6.7-13.23c0-8.73,0-17.46,0-26.44,0-31.81,0-63.62,0-95.43Z"/>
      <path class="cls-1" d="m1202.87,487.52c-2.19.98-4.19,1.79-6.54,2.73v-92.08c-20.05,0-39.8,0-59.81-.01,4.46-2.47,9.17-4.95,13.93-7.35.68-.34,1.53-.47,2.3-.47,16.88-.03,33.77-.02,50.83-.02.06.8.15,1.47.15,2.13-.01,30.53-.03,61.05-.08,91.58,0,1.1-.38,2.21-.77,3.49Z"/>
      <path class="cls-1" d="m913.03,525.11c-.09,1.69-.27,3.37-.27,5.06,0,36.32.1,136.8.1,140.64-.99-.5-1.62-.82-2.67-1.23-1.77-1.05-3.12-2-4.47-2.96,0,0-.05,0-.16-.29-.13-1.08-.18-1.88-.18-2.67-.01-46.95-.02-93.89-.03-140.84,0-.89.08-1.79.32-2.64,2.59,1.67,4.97,3.3,7.36,4.93Z"/>
      <path class="cls-1" d="m987.36,756.71c-11.73-8.71-23.25-17.36-34.9-25.82-1.79-1.3-2.46-2.56-2.28-4.63.15-1.77.03-3.57.03-5.79.88.53,1.53.86,2.11,1.28,21.68,15.95,43.34,31.93,65.05,47.84,1.51,1.11,2.35,1.95,1.68,4.04-.55,1.72-.32,3.7-.47,6.05-10.52-7.74-20.78-15.29-31.22-22.96Z"/>
      <path class="cls-1" d="m1130.06,700.75c-.5,1.1-.71,2.74-1.56,3.21-3.42,1.87-6.94,3.67-10.61,4.92-2.26.77-4.88.49-7.7.43-.71-.96-1.06-1.67-1.63-2.84,1.55.52,2.46.82,4.14,1.38-4.08-3.9-3.97-8.21-3.75-12.37,1.23.37,2.28.58,3.32.84,5.94,1.47,11.88,2.95,17.81,4.43Z"/>
      <path class="cls-1" d="m925.77,705.52c0,1.86,0,3.45,0,5.63-1.98-1.34-3.67-2.41-5.28-3.57-4.58-3.32-9.17-6.65-13.68-10.07-.67-.51-1.3-1.5-1.37-2.32-.18-2.34-.06-4.71-.06-7.63,2.3,1.6,4.22,2.9,6.1,4.27,4.01,2.92,7.94,5.96,12.03,8.77,1.76,1.21,2.63,2.55,2.26,4.92Z"/>
      <path class="cls-1" d="m1110.01,713.62c2.33.59,4.54,1.37,6.76,2.15-.66.57-1.31,1.13-1.97,1.7.74.49,1.46,1.03,2.23,1.46,1.46.8,2.95,1.54,5.04,2.62-3.75.22-6.54.38-8.91.52-.65,1.3-1.13,2.25-1.61,3.21-.24-.04-.49-.09-.73-.13-.25-1.68-.49-3.36-.72-4.92,1.83-.48,3.28-.86,4.73-1.24.01-.24.02-.47.03-.71-1.4-.35-2.81-.71-4.36-1.1-.19-1.07-.4-2.22-.5-3.55Z"/>
      <path class="cls-1" d="m965.77,681.07c2.38.76,4.76,1.75,7.91,3.06-1.69.9-2.81,1.49-4.13,2.07-.08-1.55-.44-2.64-2.19-3.11-.64-.17-1.06-1.17-1.58-2.02Z"/>
      <path class="cls-1" d="m1156.97,662.55c.13.07.25.25.19.4-.18-.04-.2-.28-.19-.4Z"/>
      <path class="cls-1" d="m1007.2,458.71c-7.14.45-14.1.78-21.6,1.09-4.86-.69-7.82,1.94-10.9,4.26-.39-.05-.82-.01-1.18-.16-6.66-2.69-12.25.89-18.3,3.12-6.06.34-11.45-1.13-16.39-4.17-.78-.48-1.74-1.5-1.74-2.27-.1-15.92-.08-31.84-.08-47.94h234.61c0,5.3,0,10.45,0,15.61.02,19.62,0,39.23.13,58.85.02,3.47-1.25,5.62-4.49,6.82-4.64,1.72-9.35,3.33-13.78,5.48-2.7,1.31-5.26,3.24-7.33,5.42-4.51,4.74-9.93,6.35-16,4.82-6.28-1.58-12.24-1.91-18.24.94-1.55.74-3.47.69-5.64.89-1.28-.1-2.15-.08-3.01-.07-1.45.23-2.01-.18-2.24-.42-.55-.59-.31-1.5,0-4,.13-1.03.17-2.07.32-3.09.27-1.83.66-5.84,1.18-15.04,3.9.34,7.87.93,12.25,1.67,4.07.9,7.73,1.65,11.39,2.4.05-.16.11-.33.16-.49-2.64-1-5.27-2.01-7.91-3.01,0,0-.07-.04-.23-.2-.93-.4-1.7-.65-2.48-.89,0,0-.13-.03-.27-.16-4.11-1.6-8.08-3.07-12.09-4.8.11-4.04.42-7.82.36-11.59-.05-3.11-1.47-4.1-4.47-3.32-5,1.31-9.85.97-14.6-.95-2.57-1.04-5.21-1.99-7.63-3.32-6.91-3.79-14.05-6.73-22.1-6.77-8.98-.8-17.97-1.48-26.94-2.44-6.54-.7-12.53,1.21-18.57,3.16-.65.21-1.34.3-2.18.55Z"/>
      <path class="cls-1" d="m905.4,517.73c0-20.9-.02-41.8,0-62.97,5.99,1.13,7.74,4.55,7.54,10.88-.59,18.57-.23,37.18-.48,56.01-.45.17-.66.09-.87.02,0,0-.04.1-.13-.09-.3-.23-.5-.27-.71-.31,0,0,0,.05-.08-.11-.41-.29-.74-.42-1.07-.56,0,0,0,.08-.05-.09-.38-.32-.71-.46-1.05-.6,0,0-.02.09-.06-.08-.24-.24-.45-.31-.66-.38,0,0,0,.07-.05-.1-.39-.31-.73-.45-1.06-.59,0,0,0,.07-.06-.1-.44-.42-.83-.67-1.22-.92Z"/>
      <path class="cls-1" d="m911.6,521.84c.22-.11.42-.03.8.07.16.03.19.33.14.47-.35-.03-.64-.19-.93-.54Z"/>
      <path class="cls-1" d="m937.07,660.03c1.16.27,2.3.52,3.57.79v6.5h-3.59c0-2.26,0-4.49.03-7.01.03-.27-.02-.31,0-.28Z"/>
      <path class="cls-1" d="m906.75,518.93c.27-.04.61.1,1.03.4-.26.04-.61-.09-1.03-.4Z"/>
      <path class="cls-1" d="m909.67,520.79c.28-.06.61.08,1.04.36-.26.04-.62-.07-1.04-.36Z"/>
      <path class="cls-1" d="m908.56,520.1c.29-.05.62.09,1.04.4-.27.04-.63-.08-1.04-.4Z"/>
      <path class="cls-1" d="m910.84,521.43c.14-.12.34-.08.64.09-.13.11-.35.09-.64-.09Z"/>
      <path class="cls-1" d="m907.86,519.61c.14-.09.35-.02.64.2-.14.09-.36.03-.64-.2Z"/>
    </g>
    <path class="cls-1" d="m1023.13,694.44c.69-.06,1.35,0,1.98.29.71.33,1.22.92,1.83,1.39.72.54,1.61.85,2.51.66s1.71-.83,2.39-1.44c1.21-1.08,3.08-3.22,1.37-4.68-1.36-1.16-3.83-.55-5.2.27-.96.57-.98,2.02,0,2.59,1.98,1.14,4.47.89,6.23-.55.42-.34.69-.76,1.04-1.18.08-.1.33-.27.35-.38-.05.2-.83.17-.83-.03,0,.15.56.79.73.95.42.4,1,.67,1.59.61,1.92-.22,1.93-2.78,0-3l-.15-.02.76.2.36.7c-.43.43-.53.63-.3.58,0,0,.21-.05.22-.05.81-.09,1.5-.63,1.5-1.5,0-.74-.69-1.59-1.5-1.5-1.21.13-2.54.56-2.86,1.91s.61,2.52,1.96,2.68v-3c.23-.03.51.39.48.23-.03-.14-.24-.34-.33-.46-.28-.37-.58-.7-1-.92-1.14-.59-2.34-.05-3.1.86-.5.6-.84,1.19-1.62,1.45-.69.24-1.39.19-2.02-.18v2.59c.34-.2.7-.37,1.09-.43.23-.04.51-.05.74-.01.09.01.3.14.19.06l-.54-.54.09.14-.2-.76c.07-.17.07-.19-.02-.04-.06.1-.13.2-.2.29-.09.12-.19.23-.28.34-.29.32-.6.63-.94.89-.15.12-.45.41-.62.38-.15-.03-.49-.42-.59-.51-1.43-1.27-3.17-2.03-5.12-1.87-.81.07-1.5.64-1.5,1.5,0,.76.69,1.57,1.5,1.5h0Z"/>
    <path class="cls-1" d="m1018.7,707.63c-.23.08-.45.15-.69.2-.12.03-.23.06-.35.08-.06.01-.3.08-.35.06.18-.02.22-.03.1-.01-.06,0-.12.01-.18.02-.12.01-.24.02-.36.03-.24.01-.48.01-.72,0s-.49,0-.71-.06c.26.05.08.01-.07-.02-.12-.02-.23-.05-.35-.07-.47-.11-.92-.26-1.36-.44l-.4,2.95c.11,0,.23-.01.34,0,.08,0,.15,0,.23.01l-.17-.02s.61.13.66.19c-.16-.07-.2-.08-.1-.03.05.03.1.05.15.08.1.06.3.26.06.02.16.16.14.07-.07-.3-.19-.29-.19-.59,0-.91.05-.1.12-.19.21-.25.11-.08.11-.09,0-.02.17-.09.25-.09.02-.03-.11.03-.23.05-.34.06.27-.03,0,0-.12,0-.13.01-.26.02-.39.03-.52.03-1.04,0-1.55-.05-.78-.08-1.53.75-1.5,1.5.04.88.66,1.41,1.5,1.5.78.08,1.55.08,2.33-.02.95-.12,1.96-.34,2.46-1.27.32-.6.29-1.29-.04-1.88-.24-.44-.69-.76-1.12-1-.78-.43-1.69-.66-2.58-.6-.75.05-1.37.53-1.47,1.3s.37,1.35,1.07,1.65c2.07.87,4.51.92,6.63.2.74-.25,1.31-1.04,1.05-1.85-.24-.74-1.05-1.32-1.85-1.05h0Z"/>
    <path class="cls-1" d="m1057.59,708.76c.47.69.64,1.55.34,2.23l2.8.76c0-1.88-1.23-3.49-3.01-4.07-1.03-.33-1.78.54-1.9,1.45-.21,1.62,1.23,3.02,2.72,3.32,1.76.35,3.34-.69,4.54-1.88l-2.51-1.46c-.23,1.55-.45,3.1-.68,4.65h2.89c-.07-.3-.03-.14-.02-.07-.01-.13,0-.26,0-.39.01-.25-.05.18.01-.07.03-.13.06-.26.11-.38-.06.17.16-.3.19-.35.09-.14.16-.23.39-.41-.2.16.38-.2.15-.1.08-.04.2-.07.29-.09-.23.04.02,0,.06.02-.2-.06-.33-.18-.49-.29-.17-.12-.03-.23-.08-.05-.09.27.03.79.01,1.08-.02.56-.12,1.08-.25,1.63-.22.97.13,1.88,1.15,2.15.79.21,1.61-.26,2.01-.94.36-.61.36-1.29.27-1.96-.15-1.18-.69-2.32-1.55-3.15-1.04-1-2.68-1.4-3.77-.23-.41.44-.6,1.05-.77,1.62-.21.71-.34,1.44-.24,2.17.18,1.35,1.24,2.57,2.66,2.67,1.6.11,2.58-1.29,3.26-2.54.63-1.16,1.37-3.22-.3-3.95-.74-.33-1.61-.22-2.05.54s-.14,1.61.54,2.05c-.11-.07.17.16.19.19-.1-.13.07.14.09.18.15.27.28.55.43.82.34.64.81,1.23,1.44,1.6,1.38.83,3.31.19,3.76-1.39.53-1.86-2.36-2.65-2.89-.8.07-.17.18-.3.34-.41.17-.06.17-.06,0-.01.13,0,.28.06.38.05-.16-.09-.19-.11-.09-.05-.12-.14-.15-.16-.08-.08-.11-.17-.21-.34-.3-.51-.46-.87-.9-1.65-1.75-2.2l-1.51,2.59c-.38-.27-.52-.59-.42-.93-.05.15-.05.18-.01.08-.12.23-.22.47-.35.69-.16.3-.5.74-.59.96-.13.31-.13.03.07.11.06,0,.13,0,.19.03.09.08.08.06-.06-.07l.05.04c.03.12.02.09-.03-.08,0,0,.02-.39.02-.38.04-.26.13-.53.22-.78.03-.09.06-.18.09-.27.03-.1.03-.1,0-.01-.2.24-.46.33-.8.28-.1-.07-.08-.05.09.04-.09-.08-.06-.05.08.08.08.08.16.16.24.25.1.13.31.52.37.7.03.11.06.22.09.34.04.19.04.23.02.12,0,.12.01.23.01.35.06-.33.28-.57.66-.71h.8l-.09-.02.66.39-.07-.08.39,1.46c.35-1.29.52-2.67.37-4-.18-1.68-1.53-2.63-3.18-2.3-2.46.49-3.8,3.26-3.28,5.55.14.64.81,1.1,1.45,1.1.6,0,1.35-.46,1.45-1.1.23-1.55.45-3.1.68-4.65.1-.67-.07-1.33-.69-1.69-.58-.34-1.35-.23-1.82.23-.51.5-1.13,1.03-1.72,1.07-.11,0-.1,0,.02.02-.1-.02-.2-.05-.3-.08.28.12-.3-.22-.15-.11.08.05.05.02-.07-.09.09.11.08.09-.01-.06.05.06.07.13.06.21,0-.1,0-.2.02-.29l-1.9,1.45c.2.06.43.23.54.37.06.09.11.18.16.27.12.22-.04-.15.03.08,0,.03.09.3.06.18s0,.26,0,.27c0,.66.47,1.27,1.1,1.45.59.16,1.43-.09,1.69-.69.76-1.71.74-3.68-.34-5.26-.46-.67-1.32-.97-2.05-.54-.66.39-1,1.38-.54,2.05h0Z"/>
    <path class="cls-1" d="m1089.99,689.34c2.92-.89,5.7-2.25,8.17-4.05,1.18-.86,2.49-1.81,3.42-2.95.68-.83.96-2.04.16-2.9-.2-.22-.43-.37-.7-.48-.1-.05-.21-.09-.32-.12-.2-.06-.2-.04,0,.07.09.04.17.11.23.19.06.12.07.13.04.03-.02-.11-.02-.09,0,.03,0-.1,0-.19,0-.29,0-1.04-1.32-2-2.26-1.3-1.79,1.34-3.58,2.68-5.37,4.02-1.62,1.21-3.43,2.39-4.01,4.45-.22.78.27,1.63,1.05,1.85s1.62-.27,1.85-1.05c.07-.23.22-.55.3-.65.23-.32.54-.59.83-.85.58-.5,1.32-1.02,2.02-1.55,1.62-1.21,3.23-2.42,4.85-3.63l-2.26-1.3c0,.61.08,1.27.4,1.8.19.3.45.59.76.78.15.09.32.16.48.21.07.03.14.04.22.06.18.05.11,0-.23-.16l-.39-.66c-.06-.14.1-.38.08-.51.07-.07.07-.07,0,0-.04.04-.08.08-.12.12-.19.19-.39.38-.6.57-.38.35-.77.69-1.17,1.02-.76.62-1.64,1.23-2.53,1.77-1.83,1.13-3.67,1.95-5.71,2.58-.77.24-1.27,1.05-1.05,1.85s1.07,1.29,1.85,1.05h0Z"/>
    <path class="cls-1" d="m1152.39,671.28c.3-.36.46-.63.63-1.06.11-.28.14-.59.16-.89.04-.59-.14-1.28-.49-1.76-.42-.59-.96-1-1.66-1.22-.56-.18-1.26-.18-1.81.03l1.69,2.2c.05-.1.11-.2.18-.29l-.23.3c.08-.1.17-.19.28-.27l-.3.23c.12-.09.25-.16.39-.23l-.36.15c.18-.07.36-.12.56-.15l-.4.05c.19-.02.39-.02.58,0l-.4-.05c.21.03.41.09.61.17l-.36-.15c.3.13.57.29.83.49l-.3-.23c.35.28.66.6.95.93.24.28.71.44,1.06.44s.81-.16,1.06-.44.46-.66.44-1.06-.17-.75-.44-1.06c-.85-.99-1.92-1.83-3.25-2s-2.87.39-3.47,1.65c-.27.56-.28,1.16.12,1.67.34.44,1.02.75,1.58.54.12-.04.23-.07.35-.09l-.4.05c.12-.01.24-.01.36,0l-.4-.05c.16.02.32.06.47.13l-.36-.15c.11.05.21.11.31.19l-.3-.23c.1.08.18.16.26.25l-.23-.3c.08.1.14.21.19.32l-.15-.36c.05.12.08.24.1.36l-.05-.4c.02.15.02.29,0,.44l.05-.4c-.02.15-.06.29-.11.42l.15-.36c-.05.12-.11.22-.19.32l.23-.3-.04.05c-.26.32-.44.63-.44,1.06,0,.37.16.81.44,1.06s.66.46,1.06.44c.37-.02.81-.14,1.06-.44h0Z"/>
    <path class="cls-1" d="m1164.39,652.89v-.44c0-.21-.04-.4-.13-.58-.06-.19-.16-.35-.31-.48-.14-.15-.3-.25-.48-.31-.18-.09-.37-.14-.58-.13l-.4.05c-.25.07-.47.2-.66.39l-.23.3c-.14.23-.2.49-.2.76v.44c0,.21.04.4.13.58.06.19.16.35.31.48.14.15.3.25.48.31.18.09.37.14.58.13l.4-.05c.25-.07.47-.2.66-.39l.23-.3c.14-.23.2-.49.2-.76h0Z"/>
    <path class="cls-1" d="m1005.87,535.3c-.42.22-.86.36-1.34.4-.21.02-.43.02-.64,0-.15-.03-.3-.06-.45-.1.15.11.26.24.35.41v.8c-.09.37-.27.28.13.1-.09.04.35-.1.43-.12-.15.03.36-.02.44-.02.29,0,.25.01.44.06.71.18,1.29.54,1.61,1.17.17.34.24,1.01.36,1.52.16.68.42,1.35.89,1.88.89,1,2.4,1.41,3.57.66.93-.59,1.01-2.02,0-2.59-1.06-.6-2.12-1.2-3.19-1.81v2.59c.95-.47,1.95-.81,2.98-1.06l-1.46-2.51c-.17.16-.3.26-.52.33-.63.22-1.1.76-1.1,1.45,0,.62.46,1.33,1.1,1.45,1.14.21,2.27.43,3.41.64.55.1,1.09.2,1.64.31.27.05.55.1.82.15.22.04.3.17.16.01l-.39-.66v-.13c.05-.25.12-.5.19-.76.28-.24.28-.25-.02-.04-.15.1-.31.2-.46.29-.31.2-.61.39-.92.59-.85.54-.96,1.62-.3,2.36s1.52.88,2.44.74c.8-.12,1.24-1.13,1.05-1.85-.24-.86-1.04-1.17-1.85-1.05.17.08.33.09.48.03l-.3,2.36c.82-.52,2-1.03,2.47-1.91.62-1.16-.19-2.36-1.31-2.75-.95-.34-2.05-.42-3.05-.61-1.09-.2-2.18-.41-3.27-.61v2.89c.71-.24,1.3-.59,1.85-1.1,1.13-1.07-.05-2.84-1.46-2.51-1.29.31-2.52.77-3.7,1.36-1.02.51-.93,2.06,0,2.59,1.06.6,2.12,1.2,3.19,1.81v-2.59c.3-.19.32.17.27,0,.02.09-.17-.18-.13-.12-.24-.32-.25-.95-.33-1.33-.19-.9-.53-1.69-1.13-2.39-1.07-1.26-2.82-1.95-4.46-1.84-1.76.12-4.72,1.72-3.1,3.82.66.87,1.88,1.07,2.91,1.09,1.12.02,2.21-.29,3.2-.82,1.7-.91.19-3.5-1.51-2.59h0Z"/>
  </g>
</svg>